<?xml version="1.0" encoding="UTF-8" standalone="no"?>
<svg
   xmlns:dc="http://purl.org/dc/elements/1.1/"
   xmlns:cc="http://creativecommons.org/ns#"
   xmlns:rdf="http://www.w3.org/1999/02/22-rdf-syntax-ns#"
   xmlns:svg="http://www.w3.org/2000/svg"
   xmlns="http://www.w3.org/2000/svg"
   xmlns:sodipodi="http://sodipodi.sourceforge.net/DTD/sodipodi-0.dtd"
   xmlns:inkscape="http://www.inkscape.org/namespaces/inkscape"
   width="300"
   height="200"
   viewBox="0 0 79.374997 52.916665"
   version="1.1"
   id="svg8"
   inkscape:version="1.0.1 (3bc2e813f5, 2020-09-07)"
   sodipodi:docname="mountainsvg.svg">
  <defs
     id="defs2" />
  <sodipodi:namedview
     id="base"
     pagecolor="#ffffff"
     bordercolor="#666666"
     borderopacity="1.0"
     inkscape:pageopacity="0.0"
     inkscape:pageshadow="2"
     inkscape:zoom="1"
     inkscape:cx="259.76304"
     inkscape:cy="-35.877689"
     inkscape:document-units="mm"
     inkscape:current-layer="layer1"
     inkscape:document-rotation="0"
     showgrid="false"
     showborder="true"
     inkscape:window-width="1920"
     inkscape:window-height="1017"
     inkscape:window-x="-8"
     inkscape:window-y="-8"
     inkscape:window-maximized="1"
     units="px"
     showguides="false" />
  <metadata
     id="metadata5">
    <rdf:RDF>
      <cc:Work
         rdf:about="">
        <dc:format>image/svg+xml</dc:format>
        <dc:type
           rdf:resource="http://purl.org/dc/dcmitype/StillImage" />
        <dc:title></dc:title>
      </cc:Work>
    </rdf:RDF>
  </metadata>
  <g
     inkscape:label="Layer 1"
     inkscape:groupmode="layer"
     id="layer1">
    <path
       id="rect833-8"
       style="fill:none;stroke:#000000;stroke-width:10.5859;stroke-linecap:round;stroke-linejoin:miter;stroke-miterlimit:4;stroke-dasharray:none"
       d="M 129.07031 24.884766 L 52.857422 175.63477 L 205.28516 175.63477 L 129.07031 24.884766 z M 182.99023 43.8125 L 165.13281 86.847656 L 168.39844 101.6875 L 181.625 117.76953 C 181.625 117.76953 185.6251 126.78585 186.625 129.79102 C 187.6249 132.79618 189.37502 138.05449 189.625 139.30664 C 189.87498 140.55879 195.875 151.07812 195.875 151.07812 L 203.62305 162.0957 L 208.6582 176.00586 L 195.36328 176.73828 L 238.14648 176.73828 L 182.99023 43.8125 z M 151.12891 176.62109 L 127.83594 176.73828 L 156.24414 176.73828 L 151.12891 176.62109 z "
       transform="scale(0.26458333)" />
    <g
       id="g1915"
       transform="matrix(12.662578,0,0,12.739443,-8.7437232,-99.643113)"
       style="display:none">
      <g
         id="g1913">
        <g
           id="g1911">
          <g
             id="g1893">
            <g
               id="g1891">
              <path
                 id="path1887"
                 style="fill:none;stroke:#000000;stroke-width:0.220345;stroke-linecap:round;stroke-linejoin:miter;stroke-miterlimit:4;stroke-dasharray:none"
                 d="m 4.0081081,3.2393393 c -2.3051378,0 0,0 -2.3051378,0 L 2.8555396,0.48338907 Z"
                 sodipodi:nodetypes="cccc" />
              <path
                 id="path1889"
                 style="fill:#000000;stroke:none;stroke-width:0.274271px;stroke-linecap:butt;stroke-linejoin:miter;stroke-opacity:1"
                 d="M 3.2820789,1.3481954 3.1060552,1.6005476 2.8155963,1.4280789 c -0.075389,0.016774 -0.1425946,0.040421 -0.3052852,0.1405152 l 0.0403,0.1147058 0.00613,0.078659 L 2.8110818,1.6431557 3.118648,1.8201304 C 3.3463842,1.6169385 3.2679604,1.6612117 3.3463808,1.6169385 Z" />
            </g>
          </g>
          <g
             id="g1909">
            <g
               id="g1907">
              <g
                 id="g1905">
                <g
                   id="g1901">
                  <g
                     id="g1899">
                    <g
                       id="g1897">
                      <path
                         id="path1895"
                         style="fill:#ffffff;stroke:#000000;stroke-width:0.276062;stroke-linecap:round;stroke-linejoin:miter;stroke-miterlimit:4;stroke-dasharray:none"
                         d="m 3.3919064,3.2241426 c -3.1849422,0 0,0 -3.1849422,0 L 1.7994358,0.09322088 Z"
                         sodipodi:nodetypes="cccc" />
                    </g>
                  </g>
                </g>
                <path
                   id="path1903"
                   style="fill:#000000;stroke:none;stroke-width:0.307971px;stroke-linecap:butt;stroke-linejoin:miter;stroke-opacity:1"
                   d="M 2.3844806,0.97859547 2.1801055,1.2526322 1.8430766,1.0655139 C 1.7505936,1.084763 1.6774998,1.1054582 1.4632477,1.2312793 1.3615992,1.0793937 1.3162513,1.1039491 1.2253262,1.011516 L 1.2014858,1.1992489 1.4146889,1.483963 1.8375645,1.2988987 2.1946686,1.4910807 C 2.4590795,1.2704272 2.368028,1.318505 2.4590795,1.2704272 Z"
                   sodipodi:nodetypes="ccccccccccc" />
              </g>
            </g>
          </g>
        </g>
      </g>
    </g>
  </g>
</svg>
